<svg width="20" height="27" viewBox="0 0 20 27" fill="none" xmlns="http://www.w3.org/2000/svg">
<path d="M2.5 26.25C1.8125 26.25 1.22417 26.0054 0.735 25.5163C0.245833 25.0271 0.000833333 24.4383 0 23.75V11.25C0 10.5625 0.245 9.97417 0.735 9.485C1.225 8.99583 1.81333 8.75083 2.5 8.75H3.75V6.25C3.75 4.52083 4.35958 3.04708 5.57875 1.82875C6.79792 0.610418 8.27167 0.000834187 10 8.53242e-07C11.7283 -0.00083248 13.2025 0.608751 14.4225 1.82875C15.6425 3.04875 16.2517 4.5225 16.25 6.25V8.75H17.5C18.1875 8.75 18.7763 8.995 19.2663 9.485C19.7563 9.975 20.0008 10.5633 20 11.25V23.75C20 24.4375 19.7554 25.0263 19.2663 25.5163C18.7771 26.0063 18.1883 26.2508 17.5 26.25H2.5ZM2.5 23.75H17.5V11.25H2.5V23.75ZM10 20C10.6875 20 11.2762 19.7554 11.7663 19.2663C12.2563 18.7771 12.5008 18.1883 12.5 17.5C12.4992 16.8117 12.2546 16.2233 11.7663 15.735C11.2779 15.2467 10.6892 15.0017 10 15C9.31083 14.9983 8.7225 15.2433 8.235 15.735C7.7475 16.2267 7.5025 16.815 7.5 17.5C7.4975 18.185 7.7425 18.7738 8.235 19.2663C8.7275 19.7588 9.31583 20.0033 10 20ZM6.25 8.75H13.75V6.25C13.75 5.20833 13.3854 4.32292 12.6562 3.59375C11.9271 2.86458 11.0417 2.5 10 2.5C8.95833 2.5 8.07292 2.86458 7.34375 3.59375C6.61458 4.32292 6.25 5.20833 6.25 6.25V8.75Z" fill="#9BA3AC"/>
</svg>
