<svg width="36" height="32" viewBox="0 0 36 32" fill="none" xmlns="http://www.w3.org/2000/svg">
<ellipse cx="18" cy="16" rx="18" ry="16" fill="#F7F7F7"/>
<path d="M18.0001 6.5719C18.3573 6.5719 18.6999 6.7138 18.9525 6.96639C19.2051 7.21898 19.347 7.56156 19.347 7.91877V14.6531H26.0813C26.4385 14.6531 26.7811 14.795 27.0337 15.0476C27.2863 15.3002 27.4282 15.6428 27.4282 16C27.4282 16.3572 27.2863 16.6998 27.0337 16.9524C26.7811 17.205 26.4385 17.3469 26.0813 17.3469H19.347V24.0812C19.347 24.4384 19.2051 24.781 18.9525 25.0336C18.6999 25.2862 18.3573 25.4281 18.0001 25.4281C17.6429 25.4281 17.3003 25.2862 17.0477 25.0336C16.7951 24.781 16.6532 24.4384 16.6532 24.0812V17.3469H9.91889C9.56168 17.3469 9.2191 17.205 8.96651 16.9524C8.71392 16.6998 8.57202 16.3572 8.57202 16C8.57202 15.6428 8.71392 15.3002 8.96651 15.0476C9.2191 14.795 9.56168 14.6531 9.91889 14.6531H16.6532V7.91877C16.6532 7.56156 16.7951 7.21898 17.0477 6.96639C17.3003 6.7138 17.6429 6.5719 18.0001 6.5719Z" fill="#666666"/>
</svg>
