<svg width="36" height="36" viewBox="0 0 36 36" fill="none" xmlns="http://www.w3.org/2000/svg">
<circle cx="18" cy="18" r="18" fill="#F7F7F7"/>
<path d="M28.8 18.4315L13.4 24.9315C13.0667 25.0648 12.75 25.0355 12.45 24.8435C12.15 24.6515 12 24.3725 12 24.0065V11.0065C12 10.6398 12.15 10.3608 12.45 10.1695C12.75 9.97815 13.0667 9.94882 13.4 10.0815L28.8 16.5815C29.2167 16.7648 29.425 17.0732 29.425 17.5065C29.425 17.9398 29.2167 18.2482 28.8 18.4315ZM14 22.5065L25.85 17.5065L14 12.5065V16.0065L20 17.5065L14 19.0065V22.5065Z" fill="#818181"/>
</svg>
